<svg xmlns="http://www.w3.org/2000/svg" viewBox="0 0 256 256">
  <defs>
    <linearGradient id="grad" x1="0%" y1="0%" x2="100%" y2="100%">
      <stop offset="0%" style="stop-color:#3b82f6;stop-opacity:1" />
      <stop offset="100%" style="stop-color:#1d4ed8;stop-opacity:1" />
    </linearGradient>
  </defs>
  <rect width="256" height="256" fill="url(#grad)" rx="40"/>
  <g transform="translate(128, 128)">
    <!-- CRM icon: people/contacts symbol -->
    <circle cx="-40" cy="-20" r="18" fill="white" opacity="0.9"/>
    <path d="M -40 5 Q -50 15, -60 28 L -60 35 L -20 35 L -20 28 Q -30 15, -40 5 Z" fill="white" opacity="0.9"/>
    
    <circle cx="40" cy="-20" r="18" fill="white" opacity="0.9"/>
    <path d="M 40 5 Q 30 15, 20 28 L 20 35 L 60 35 L 60 28 Q 50 15, 40 5 Z" fill="white" opacity="0.9"/>
    
    <circle cx="0" cy="-30" r="20" fill="white"/>
    <path d="M 0 -5 Q -12 8, -25 22 L -25 45 L 25 45 L 25 22 Q 12 8, 0 -5 Z" fill="white"/>
    
    <!-- Connection lines -->
    <line x1="-20" y1="-15" x2="-8" y2="-20" stroke="white" stroke-width="3" opacity="0.7"/>
    <line x1="20" y1="-15" x2="8" y2="-20" stroke="white" stroke-width="3" opacity="0.7"/>
  </g>
</svg>
